<svg enable-background="new 0 0 500 418.7" viewBox="0 0 500 418.7" xmlns="http://www.w3.org/2000/svg"><path d="m480.52 403.57c0 .14-103.22.26-230.51.26-127.34 0-230.53-.12-230.53-.26s103.19-.26 230.53-.26c127.3 0 230.51.11 230.51.26z" fill="#263238"/><path d="m60.26 369.35h62.68v11.38h-62.68z" fill="#00c1af"/><g fill="#263238"><path d="m66.4 380.81c-.14 0-.26-2.53-.26-5.65s.12-5.65.26-5.65.26 2.53.26 5.65c0 3.13-.11 5.65-.26 5.65z"/><path d="m62.97 380.81c-.14 0-.26-2.53-.26-5.65s.12-5.65.26-5.65.26 2.53.26 5.65c0 3.13-.11 5.65-.26 5.65z"/><path d="m73.93 380.81c-.14 0-.26-2.53-.26-5.65s.12-5.65.26-5.65.26 2.53.26 5.65c0 3.13-.11 5.65-.26 5.65z"/><path d="m70.51 380.81c-.14 0-.26-2.53-.26-5.65s.12-5.65.26-5.65.26 2.53.26 5.65c0 3.13-.12 5.65-.26 5.65z"/><path d="m81.47 380.81c-.14 0-.26-2.53-.26-5.65s.12-5.65.26-5.65.26 2.53.26 5.65c0 3.13-.12 5.65-.26 5.65z"/><path d="m78.04 380.81c-.14 0-.26-2.53-.26-5.65s.12-5.65.26-5.65.26 2.53.26 5.65c0 3.13-.12 5.65-.26 5.65z"/><path d="m89 380.81c-.14 0-.26-2.53-.26-5.65s.12-5.65.26-5.65.26 2.53.26 5.65c0 3.13-.12 5.65-.26 5.65z"/><path d="m85.57 380.81c-.14 0-.26-2.53-.26-5.65s.12-5.65.26-5.65.26 2.53.26 5.65c0 3.13-.12 5.65-.26 5.65z"/><path d="m96.53 380.81c-.14 0-.26-2.53-.26-5.65s.12-5.65.26-5.65.26 2.53.26 5.65c0 3.13-.12 5.65-.26 5.65z"/><path d="m93.1 380.81c-.14 0-.26-2.53-.26-5.65s.12-5.65.26-5.65.26 2.53.26 5.65c0 3.13-.12 5.65-.26 5.65z"/><path d="m104.06 380.81c-.14 0-.26-2.53-.26-5.65s.12-5.65.26-5.65.26 2.53.26 5.65c0 3.13-.12 5.65-.26 5.65z"/><path d="m100.63 380.81c-.14 0-.26-2.53-.26-5.65s.12-5.65.26-5.65.26 2.53.26 5.65c0 3.13-.11 5.65-.26 5.65z"/><path d="m111.59 380.81c-.14 0-.26-2.53-.26-5.65s.12-5.65.26-5.65.26 2.53.26 5.65c0 3.13-.11 5.65-.26 5.65z"/><path d="m108.16 380.81c-.14 0-.26-2.53-.26-5.65s.12-5.65.26-5.65.26 2.53.26 5.65c0 3.13-.11 5.65-.26 5.65z"/><path d="m119.12 380.81c-.14 0-.26-2.53-.26-5.65s.12-5.65.26-5.65.26 2.53.26 5.65c0 3.13-.11 5.65-.26 5.65z"/><path d="m115.69 380.81c-.14 0-.26-2.53-.26-5.65s.12-5.65.26-5.65.26 2.53.26 5.65c.01 3.13-.11 5.65-.26 5.65z"/><path d="m122.94 369.35c0 .14-14.13.26-31.56.26s-31.56-.12-31.56-.26 14.13-.26 31.56-.26 31.56.12 31.56.26z"/></g><path d="m55.35 380.64h62.68v11.38h-62.68z" fill="#00c1af"/><path d="m61.49 392.11c-.14 0-.26-2.53-.26-5.65s.12-5.65.26-5.65.26 2.53.26 5.65-.12 5.65-.26 5.65z" fill="#263238"/><path d="m58.06 392.11c-.14 0-.26-2.53-.26-5.65s.12-5.65.26-5.65.26 2.53.26 5.65-.12 5.65-.26 5.65z" fill="#263238"/><path d="m69.02 392.11c-.14 0-.26-2.53-.26-5.65s.12-5.65.26-5.65.26 2.53.26 5.65-.12 5.65-.26 5.65z" fill="#263238"/><path d="m65.59 392.11c-.14 0-.26-2.53-.26-5.65s.12-5.65.26-5.65.26 2.53.26 5.65-.11 5.65-.26 5.65z" fill="#263238"/><path d="m76.55 392.11c-.14 0-.26-2.53-.26-5.65s.12-5.65.26-5.65.26 2.53.26 5.65-.11 5.65-.26 5.65z" fill="#263238"/><path d="m73.12 392.11c-.14 0-.26-2.53-.26-5.65s.12-5.65.26-5.65.26 2.53.26 5.65-.11 5.65-.26 5.65z" fill="#263238"/><path d="m84.08 392.11c-.14 0-.26-2.53-.26-5.65s.12-5.65.26-5.65.26 2.53.26 5.65-.11 5.65-.26 5.65z" fill="#263238"/><path d="m80.65 392.11c-.14 0-.26-2.53-.26-5.65s.12-5.65.26-5.65.26 2.53.26 5.65c.01 3.12-.11 5.65-.26 5.65z" fill="#263238"/><path d="m91.62 392.11c-.14 0-.26-2.53-.26-5.65s.12-5.65.26-5.65.26 2.53.26 5.65-.12 5.65-.26 5.65z" fill="#263238"/><path d="m88.19 392.11c-.14 0-.26-2.53-.26-5.65s.12-5.65.26-5.65.26 2.53.26 5.65-.12 5.65-.26 5.65z" fill="#263238"/><path d="m99.15 392.11c-.14 0-.26-2.53-.26-5.65s.12-5.65.26-5.65.26 2.53.26 5.65-.12 5.65-.26 5.65z" fill="#263238"/><path d="m95.72 392.11c-.14 0-.26-2.53-.26-5.65s.12-5.65.26-5.65.26 2.53.26 5.65-.12 5.65-.26 5.65z" fill="#263238"/><path d="m106.68 392.11c-.14 0-.26-2.53-.26-5.65s.12-5.65.26-5.65.26 2.53.26 5.65-.12 5.65-.26 5.65z" fill="#263238"/><path d="m103.25 392.11c-.14 0-.26-2.53-.26-5.65s.12-5.65.26-5.65.26 2.53.26 5.65-.12 5.65-.26 5.65z" fill="#263238"/><path d="m114.21 392.11c-.14 0-.26-2.53-.26-5.65s.12-5.65.26-5.65.26 2.53.26 5.65-.12 5.65-.26 5.65z" fill="#263238"/><path d="m110.78 392.11c-.14 0-.26-2.53-.26-5.65s.12-5.65.26-5.65.26 2.53.26 5.65-.11 5.65-.26 5.65z" fill="#263238"/><path d="m118.03 380.64c0 .14-14.1.26-31.48.26-17.39 0-31.49-.12-31.49-.26s14.1-.26 31.49-.26c17.38 0 31.48.12 31.48.26z" fill="#263238"/><path d="m51.32 392.11h62.68v11.38h-62.68z" fill="#00c1af"/><path d="m57.46 403.57c-.14 0-.26-2.53-.26-5.65s.12-5.65.26-5.65.26 2.53.26 5.65-.11 5.65-.26 5.65z" fill="#263238"/><path d="m54.03 403.57c-.14 0-.26-2.53-.26-5.65s.12-5.65.26-5.65.26 2.53.26 5.65-.11 5.65-.26 5.65z" fill="#263238"/><path d="m64.99 403.57c-.14 0-.26-2.53-.26-5.65s.12-5.65.26-5.65.26 2.53.26 5.65-.11 5.65-.26 5.65z" fill="#263238"/><path d="m61.56 403.57c-.14 0-.26-2.53-.26-5.65s.12-5.65.26-5.65.26 2.53.26 5.65c.01 3.12-.11 5.65-.26 5.65z" fill="#263238"/><path d="m72.52 403.57c-.14 0-.26-2.53-.26-5.65s.12-5.65.26-5.65.26 2.53.26 5.65c.01 3.12-.11 5.65-.26 5.65z" fill="#263238"/><path d="m69.1 403.57c-.14 0-.26-2.53-.26-5.65s.12-5.65.26-5.65.26 2.53.26 5.65-.12 5.65-.26 5.65z" fill="#263238"/><path d="m80.06 403.57c-.14 0-.26-2.53-.26-5.65s.12-5.65.26-5.65.26 2.53.26 5.65-.12 5.65-.26 5.65z" fill="#263238"/><path d="m76.63 403.57c-.14 0-.26-2.53-.26-5.65s.12-5.65.26-5.65.26 2.53.26 5.65-.12 5.65-.26 5.65z" fill="#263238"/><path d="m87.59 403.57c-.14 0-.26-2.53-.26-5.65s.12-5.65.26-5.65.26 2.53.26 5.65-.12 5.65-.26 5.65z" fill="#263238"/><path d="m84.16 403.57c-.14 0-.26-2.53-.26-5.65s.12-5.65.26-5.65.26 2.53.26 5.65-.12 5.65-.26 5.65z" fill="#263238"/><path d="m95.12 403.57c-.14 0-.26-2.53-.26-5.65s.12-5.65.26-5.65.26 2.53.26 5.65-.12 5.65-.26 5.65z" fill="#263238"/><path d="m91.69 403.57c-.14 0-.26-2.53-.26-5.65s.12-5.65.26-5.65.26 2.53.26 5.65-.12 5.65-.26 5.65z" fill="#263238"/><path d="m102.65 403.57c-.14 0-.26-2.53-.26-5.65s.12-5.65.26-5.65.26 2.53.26 5.65-.11 5.65-.26 5.65z" fill="#263238"/><path d="m99.22 403.57c-.14 0-.26-2.53-.26-5.65s.12-5.65.26-5.65.26 2.53.26 5.65-.11 5.65-.26 5.65z" fill="#263238"/><path d="m110.18 403.57c-.14 0-.26-2.53-.26-5.65s.12-5.65.26-5.65.26 2.53.26 5.65-.11 5.65-.26 5.65z" fill="#263238"/><path d="m106.75 403.57c-.14 0-.26-2.53-.26-5.65s.12-5.65.26-5.65.26 2.53.26 5.65-.11 5.65-.26 5.65z" fill="#263238"/><path d="m114 392.11c0 .14-14.1.26-31.48.26-17.39 0-31.49-.12-31.49-.26s14.1-.26 31.49-.26c17.38 0 31.48.11 31.48.26z" fill="#263238"/><path d="m63.86 380.76c9.36 2.3 19.34 2.75 28.96 2.11s19.33-2.05 28.97-1.94z" opacity=".3"/><path d="m52.09 392.25c9.36 2.3 19.34 2.75 28.96 2.11s19.33-2.05 28.97-1.94z" opacity=".3"/><path d="m62.43 370.03c0 .14-.35.26-.79.26-.43 0-.79-.12-.79-.26s.35-.26.79-.26.79.12.79.26z" fill="#fff"/><path d="m71.14 370.06c0 .14-1.61.26-3.6.26s-3.6-.12-3.6-.26 1.61-.26 3.6-.26 3.6.12 3.6.26z" fill="#fff"/><path d="m81.08 370.06c0 .14-1.61.26-3.6.26s-3.6-.12-3.6-.26 1.61-.26 3.6-.26 3.6.12 3.6.26z" fill="#fff"/><path d="m404 341.9h67.43v12.25h-67.43z" fill="#00c1af"/><path d="m410.61 354.23c-.15 0-.28-2.72-.28-6.07 0-3.36.13-6.07.28-6.07s.28 2.72.28 6.07-.12 6.07-.28 6.07z" fill="#263238"/><path d="m406.92 354.23c-.16 0-.28-2.72-.28-6.07 0-3.36.13-6.07.28-6.07s.28 2.72.28 6.07-.12 6.07-.28 6.07z" fill="#263238"/><path d="m418.71 354.23c-.15 0-.28-2.72-.28-6.07 0-3.36.13-6.07.28-6.07s.28 2.72.28 6.07-.12 6.07-.28 6.07z" fill="#263238"/><path d="m415.02 354.23c-.16 0-.28-2.72-.28-6.07 0-3.36.13-6.07.28-6.07s.28 2.72.28 6.07c.01 3.35-.12 6.07-.28 6.07z" fill="#263238"/><path d="m426.82 354.23c-.15 0-.28-2.72-.28-6.07 0-3.36.13-6.07.28-6.07.16 0 .28 2.72.28 6.07s-.13 6.07-.28 6.07z" fill="#263238"/><path d="m423.13 354.23c-.16 0-.28-2.72-.28-6.07 0-3.36.13-6.07.28-6.07s.28 2.72.28 6.07-.13 6.07-.28 6.07z" fill="#263238"/><path d="m434.92 354.23c-.15 0-.28-2.72-.28-6.07 0-3.36.13-6.07.28-6.07s.28 2.72.28 6.07-.13 6.07-.28 6.07z" fill="#263238"/><path d="m431.23 354.23c-.16 0-.28-2.72-.28-6.07 0-3.36.13-6.07.28-6.07s.28 2.72.28 6.07-.13 6.07-.28 6.07z" fill="#263238"/><path d="m443.02 354.23c-.16 0-.28-2.72-.28-6.07 0-3.36.13-6.07.28-6.07s.28 2.72.28 6.07-.12 6.07-.28 6.07z" fill="#263238"/><path d="m439.33 354.23c-.16 0-.28-2.72-.28-6.07 0-3.36.13-6.07.28-6.07s.28 2.72.28 6.07-.12 6.07-.28 6.07z" fill="#263238"/><path d="m451.12 354.23c-.16 0-.28-2.72-.28-6.07 0-3.36.13-6.07.28-6.07s.28 2.72.28 6.07-.12 6.07-.28 6.07z" fill="#263238"/><path d="m447.43 354.23c-.16 0-.28-2.72-.28-6.07 0-3.36.13-6.07.28-6.07s.28 2.72.28 6.07c.01 3.35-.12 6.07-.28 6.07z" fill="#263238"/><path d="m459.23 354.23c-.16 0-.28-2.72-.28-6.07 0-3.36.13-6.07.28-6.07s.28 2.72.28 6.07-.13 6.07-.28 6.07z" fill="#263238"/><path d="m455.54 354.23c-.16 0-.28-2.72-.28-6.07 0-3.36.13-6.07.28-6.07s.28 2.72.28 6.07-.13 6.07-.28 6.07z" fill="#263238"/><path d="m467.33 354.23c-.16 0-.28-2.72-.28-6.07 0-3.36.13-6.07.28-6.07s.28 2.72.28 6.07-.13 6.07-.28 6.07z" fill="#263238"/><path d="m463.64 354.23c-.16 0-.28-2.72-.28-6.07 0-3.36.13-6.07.28-6.07s.28 2.72.28 6.07-.13 6.07-.28 6.07z" fill="#263238"/><path d="m471.44 341.9c0 .15-15.17.28-33.87.28-18.71 0-33.88-.13-33.88-.28s15.16-.28 33.88-.28c18.7 0 33.87.12 33.87.28z" fill="#263238"/><path d="m399.59 354.34h67.43v12.25h-67.43z" fill="#00c1af"/><path d="m406.2 366.67c-.15 0-.28-2.72-.28-6.07 0-3.36.13-6.07.28-6.07s.28 2.72.28 6.07-.13 6.07-.28 6.07z" fill="#263238"/><path d="m402.51 366.67c-.15 0-.28-2.72-.28-6.07 0-3.36.13-6.07.28-6.07s.28 2.72.28 6.07-.13 6.07-.28 6.07z" fill="#263238"/><path d="m414.3 366.67c-.15 0-.28-2.72-.28-6.07 0-3.36.13-6.07.28-6.07.16 0 .28 2.72.28 6.07s-.13 6.07-.28 6.07z" fill="#263238"/><path d="m410.61 366.67c-.15 0-.28-2.72-.28-6.07 0-3.36.13-6.07.28-6.07s.28 2.72.28 6.07-.12 6.07-.28 6.07z" fill="#263238"/><path d="m422.4 366.67c-.15 0-.28-2.72-.28-6.07 0-3.36.13-6.07.28-6.07s.28 2.72.28 6.07-.12 6.07-.28 6.07z" fill="#263238"/><path d="m418.71 366.67c-.15 0-.28-2.72-.28-6.07 0-3.36.13-6.07.28-6.07s.28 2.72.28 6.07-.12 6.07-.28 6.07z" fill="#263238"/><path d="m430.5 366.67c-.15 0-.28-2.72-.28-6.07 0-3.36.13-6.07.28-6.07s.28 2.72.28 6.07-.12 6.07-.28 6.07z" fill="#263238"/><path d="m426.82 366.67c-.15 0-.28-2.72-.28-6.07 0-3.36.13-6.07.28-6.07.16 0 .28 2.72.28 6.07s-.13 6.07-.28 6.07z" fill="#263238"/><path d="m438.61 366.67c-.16 0-.28-2.72-.28-6.07 0-3.36.13-6.07.28-6.07s.28 2.72.28 6.07-.13 6.07-.28 6.07z" fill="#263238"/><path d="m434.92 366.67c-.15 0-.28-2.72-.28-6.07 0-3.36.13-6.07.28-6.07s.28 2.72.28 6.07-.13 6.07-.28 6.07z" fill="#263238"/><path d="m446.71 366.67c-.15 0-.28-2.72-.28-6.07 0-3.36.13-6.07.28-6.07s.28 2.72.28 6.07-.13 6.07-.28 6.07z" fill="#263238"/><path d="m443.02 366.67c-.16 0-.28-2.72-.28-6.07 0-3.36.13-6.07.28-6.07s.28 2.72.28 6.07-.12 6.07-.28 6.07z" fill="#263238"/><path d="m454.81 366.67c-.15 0-.28-2.72-.28-6.07 0-3.36.13-6.07.28-6.07s.28 2.72.28 6.07-.12 6.07-.28 6.07z" fill="#263238"/><path d="m451.12 366.67c-.16 0-.28-2.72-.28-6.07 0-3.36.13-6.07.28-6.07s.28 2.72.28 6.07-.12 6.07-.28 6.07z" fill="#263238"/><path d="m462.91 366.67c-.15 0-.28-2.72-.28-6.07 0-3.36.13-6.07.28-6.07s.28 2.72.28 6.07c.01 3.35-.12 6.07-.28 6.07z" fill="#263238"/><path d="m459.23 366.67c-.16 0-.28-2.72-.28-6.07 0-3.36.13-6.07.28-6.07s.28 2.72.28 6.07-.13 6.07-.28 6.07z" fill="#263238"/><path d="m467.02 354.34c0 .16-15.17.28-33.87.28-18.71 0-33.88-.13-33.88-.28s15.16-.28 33.88-.28c18.71 0 33.87.12 33.87.28z" fill="#263238"/><path d="m405.1 366.67h67.43v12.25h-67.43z" fill="#00c1af"/><path d="m411.71 379c-.15 0-.28-2.72-.28-6.07 0-3.36.13-6.07.28-6.07s.28 2.72.28 6.07-.13 6.07-.28 6.07z" fill="#263238"/><path d="m408.02 379c-.15 0-.28-2.72-.28-6.07 0-3.36.13-6.07.28-6.07s.28 2.72.28 6.07-.13 6.07-.28 6.07z" fill="#263238"/><path d="m419.81 379c-.15 0-.28-2.72-.28-6.07 0-3.36.13-6.07.28-6.07s.28 2.72.28 6.07-.13 6.07-.28 6.07z" fill="#263238"/><path d="m416.12 379c-.15 0-.28-2.72-.28-6.07 0-3.36.13-6.07.28-6.07s.28 2.72.28 6.07-.12 6.07-.28 6.07z" fill="#263238"/><path d="m427.91 379c-.15 0-.28-2.72-.28-6.07 0-3.36.13-6.07.28-6.07s.28 2.72.28 6.07-.12 6.07-.28 6.07z" fill="#263238"/><path d="m424.22 379c-.16 0-.28-2.72-.28-6.07 0-3.36.13-6.07.28-6.07.16 0 .28 2.72.28 6.07s-.12 6.07-.28 6.07z" fill="#263238"/><path d="m436.01 379c-.15 0-.28-2.72-.28-6.07 0-3.36.13-6.07.28-6.07.16 0 .28 2.72.28 6.07.01 3.35-.12 6.07-.28 6.07z" fill="#263238"/><path d="m432.33 379c-.16 0-.28-2.72-.28-6.07 0-3.36.13-6.07.28-6.07s.28 2.72.28 6.07-.13 6.07-.28 6.07z" fill="#263238"/><path d="m444.12 379c-.15 0-.28-2.72-.28-6.07 0-3.36.13-6.07.28-6.07s.28 2.72.28 6.07-.13 6.07-.28 6.07z" fill="#263238"/><path d="m440.43 379c-.16 0-.28-2.72-.28-6.07 0-3.36.13-6.07.28-6.07s.28 2.72.28 6.07-.13 6.07-.28 6.07z" fill="#263238"/><path d="m452.22 379c-.15 0-.28-2.72-.28-6.07 0-3.36.13-6.07.28-6.07s.28 2.72.28 6.07-.13 6.07-.28 6.07z" fill="#263238"/><path d="m448.53 379c-.16 0-.28-2.72-.28-6.07 0-3.36.13-6.07.28-6.07s.28 2.72.28 6.07-.12 6.07-.28 6.07z" fill="#263238"/><path d="m460.32 379c-.16 0-.28-2.72-.28-6.07 0-3.36.13-6.07.28-6.07s.28 2.72.28 6.07-.12 6.07-.28 6.07z" fill="#263238"/><path d="m456.63 379c-.15 0-.28-2.72-.28-6.07 0-3.36.13-6.07.28-6.07s.28 2.72.28 6.07-.12 6.07-.28 6.07z" fill="#263238"/><path d="m468.42 379c-.15 0-.28-2.72-.28-6.07 0-3.36.13-6.07.28-6.07s.28 2.72.28 6.07c.01 3.35-.12 6.07-.28 6.07z" fill="#263238"/><path d="m464.74 379c-.15 0-.28-2.72-.28-6.07 0-3.36.13-6.07.28-6.07s.28 2.72.28 6.07-.13 6.07-.28 6.07z" fill="#263238"/><path d="m472.53 366.67c0 .16-15.2.28-33.95.28-18.76 0-33.96-.13-33.96-.28s15.2-.28 33.96-.28c18.75 0 33.95.12 33.95.28z" fill="#263238"/><path d="m399.81 378.82h67.43v12.25h-67.43z" fill="#00c1af"/><path d="m406.42 391.15c-.15 0-.28-2.72-.28-6.07 0-3.36.13-6.07.28-6.07s.28 2.72.28 6.07-.12 6.07-.28 6.07z" fill="#263238"/><path d="m402.73 391.15c-.15 0-.28-2.72-.28-6.07 0-3.36.13-6.07.28-6.07s.28 2.72.28 6.07-.12 6.07-.28 6.07z" fill="#263238"/><path d="m414.52 391.15c-.15 0-.28-2.72-.28-6.07 0-3.36.13-6.07.28-6.07s.28 2.72.28 6.07-.12 6.07-.28 6.07z" fill="#263238"/><path d="m410.83 391.15c-.15 0-.28-2.72-.28-6.07 0-3.36.13-6.07.28-6.07.16 0 .28 2.72.28 6.07.01 3.35-.12 6.07-.28 6.07z" fill="#263238"/><path d="m422.63 391.15c-.16 0-.28-2.72-.28-6.07 0-3.36.13-6.07.28-6.07s.28 2.72.28 6.07-.13 6.07-.28 6.07z" fill="#263238"/><path d="m418.94 391.15c-.15 0-.28-2.72-.28-6.07 0-3.36.13-6.07.28-6.07s.28 2.72.28 6.07-.13 6.07-.28 6.07z" fill="#263238"/><path d="m430.73 391.15c-.15 0-.28-2.72-.28-6.07 0-3.36.13-6.07.28-6.07s.28 2.72.28 6.07-.13 6.07-.28 6.07z" fill="#263238"/><path d="m427.04 391.15c-.15 0-.28-2.72-.28-6.07 0-3.36.13-6.07.28-6.07s.28 2.72.28 6.07-.12 6.07-.28 6.07z" fill="#263238"/><path d="m438.83 391.15c-.15 0-.28-2.72-.28-6.07 0-3.36.13-6.07.28-6.07s.28 2.72.28 6.07-.12 6.07-.28 6.07z" fill="#263238"/><path d="m435.14 391.15c-.16 0-.28-2.72-.28-6.07 0-3.36.13-6.07.28-6.07s.28 2.72.28 6.07-.12 6.07-.28 6.07z" fill="#263238"/><path d="m446.93 391.15c-.15 0-.28-2.72-.28-6.07 0-3.36.13-6.07.28-6.07s.28 2.72.28 6.07-.12 6.07-.28 6.07z" fill="#263238"/><path d="m443.25 391.15c-.15 0-.28-2.72-.28-6.07 0-3.36.13-6.07.28-6.07s.28 2.72.28 6.07-.13 6.07-.28 6.07z" fill="#263238"/><path d="m455.04 391.15c-.15 0-.28-2.72-.28-6.07 0-3.36.13-6.07.28-6.07.16 0 .28 2.72.28 6.07s-.13 6.07-.28 6.07z" fill="#263238"/><path d="m451.35 391.15c-.15 0-.28-2.72-.28-6.07 0-3.36.13-6.07.28-6.07s.28 2.72.28 6.07-.13 6.07-.28 6.07z" fill="#263238"/><path d="m463.14 391.15c-.15 0-.28-2.72-.28-6.07 0-3.36.13-6.07.28-6.07s.28 2.72.28 6.07-.13 6.07-.28 6.07z" fill="#263238"/><path d="m459.45 391.15c-.15 0-.28-2.72-.28-6.07 0-3.36.13-6.07.28-6.07s.28 2.72.28 6.07-.12 6.07-.28 6.07z" fill="#263238"/><path d="m467.25 378.82c0 .16-15.17.28-33.87.28-18.71 0-33.88-.13-33.88-.28s15.16-.28 33.88-.28c18.7 0 33.87.12 33.87.28z" fill="#263238"/><path d="m406.57 391.24h67.43v12.25h-67.43z" fill="#00c1af"/><path d="m413.18 403.57c-.16 0-.28-2.72-.28-6.07 0-3.36.13-6.07.28-6.07s.28 2.72.28 6.07-.13 6.07-.28 6.07z" fill="#263238"/><path d="m409.49 403.57c-.16 0-.28-2.72-.28-6.07 0-3.36.13-6.07.28-6.07s.28 2.72.28 6.07-.12 6.07-.28 6.07z" fill="#263238"/><path d="m421.28 403.57c-.16 0-.28-2.72-.28-6.07 0-3.36.13-6.07.28-6.07s.28 2.72.28 6.07-.12 6.07-.28 6.07z" fill="#263238"/><path d="m417.59 403.57c-.16 0-.28-2.72-.28-6.07 0-3.36.13-6.07.28-6.07s.28 2.72.28 6.07-.12 6.07-.28 6.07z" fill="#263238"/><path d="m429.38 403.57c-.16 0-.28-2.72-.28-6.07 0-3.36.13-6.07.28-6.07s.28 2.72.28 6.07-.12 6.07-.28 6.07z" fill="#263238"/><path d="m425.7 403.57c-.16 0-.28-2.72-.28-6.07 0-3.36.13-6.07.28-6.07s.28 2.72.28 6.07-.13 6.07-.28 6.07z" fill="#263238"/><path d="m437.49 403.57c-.16 0-.28-2.72-.28-6.07 0-3.36.13-6.07.28-6.07s.28 2.72.28 6.07-.13 6.07-.28 6.07z" fill="#263238"/><path d="m433.8 403.57c-.15 0-.28-2.72-.28-6.07 0-3.36.13-6.07.28-6.07s.28 2.72.28 6.07-.13 6.07-.28 6.07z" fill="#263238"/><path d="m445.59 403.57c-.16 0-.28-2.72-.28-6.07 0-3.36.13-6.07.28-6.07s.28 2.72.28 6.07-.13 6.07-.28 6.07z" fill="#263238"/><path d="m441.9 403.57c-.16 0-.28-2.72-.28-6.07 0-3.36.13-6.07.28-6.07s.28 2.72.28 6.07-.12 6.07-.28 6.07z" fill="#263238"/><path d="m453.69 403.57c-.16 0-.28-2.72-.28-6.07 0-3.36.13-6.07.28-6.07s.28 2.72.28 6.07-.12 6.07-.28 6.07z" fill="#263238"/><path d="m450 403.57c-.15 0-.28-2.72-.28-6.07 0-3.36.13-6.07.28-6.07s.28 2.72.28 6.07-.12 6.07-.28 6.07z" fill="#263238"/><path d="m461.79 403.57c-.16 0-.28-2.72-.28-6.07 0-3.36.13-6.07.28-6.07s.28 2.72.28 6.07c.01 3.35-.12 6.07-.28 6.07z" fill="#263238"/><path d="m458.11 403.57c-.16 0-.28-2.72-.28-6.07 0-3.36.13-6.07.28-6.07s.28 2.72.28 6.07-.13 6.07-.28 6.07z" fill="#263238"/><path d="m469.9 403.57c-.16 0-.28-2.72-.28-6.07 0-3.36.13-6.07.28-6.07s.28 2.72.28 6.07-.13 6.07-.28 6.07z" fill="#263238"/><path d="m466.21 403.57c-.15 0-.28-2.72-.28-6.07 0-3.36.13-6.07.28-6.07s.28 2.72.28 6.07-.13 6.07-.28 6.07z" fill="#263238"/><path d="m474 391.24c0 .16-15.17.28-33.87.28-18.71 0-33.88-.13-33.88-.28s15.16-.28 33.88-.28c18.71 0 33.87.12 33.87.28z" fill="#263238"/><path d="m405.1 366.67c10.07 2.48 20.8 2.95 31.15 2.27 10.35-.69 20.8-2.21 31.17-2.08z" opacity=".3"/><path d="m405.71 354.48c10.07 2.48 20.8 2.95 31.15 2.27 10.35-.69 20.8-2.21 31.17-2.08z" opacity=".3"/><path d="m408.97 378.94c10.07 2.48 20.8 2.95 31.15 2.27 10.35-.69 20.8-2.21 31.17-2.08z" opacity=".3"/><path d="m406.33 391.16c10.07 2.48 20.8 2.95 31.15 2.27 10.35-.69 20.8-2.21 31.17-2.08z" opacity=".3"/><path d="m405.24 350.27c-.16 0-.28-1.5-.28-3.35s.13-3.35.28-3.35.28 1.5.28 3.35-.13 3.35-.28 3.35z" fill="#fff"/><path d="m400.99 363.36c-.15 0-.28-1.61-.28-3.6s.13-3.6.28-3.6.28 1.61.28 3.6-.13 3.6-.28 3.6z" fill="#fff"/><path d="m407.04 375.95c-.15 0-.28-1.43-.28-3.19s.13-3.19.28-3.19.28 1.43.28 3.19-.13 3.19-.28 3.19z" fill="#fff"/><path d="m400.82 387.56c-.16 0-.28-1.28-.28-2.86s.13-2.86.28-2.86.28 1.28.28 2.86-.12 2.86-.28 2.86z" fill="#fff"/><path d="m425.52 355.34c0 .15-4.98.28-11.12.28s-11.12-.13-11.12-.28 4.98-.28 11.12-.28 11.12.13 11.12.28z" fill="#fff"/><path d="m432.72 343.57c0 .16-5.02.28-11.2.28-6.19 0-11.2-.13-11.2-.28s5.02-.28 11.2-.28 11.2.12 11.2.28z" fill="#fff"/><path d="m443.51 343.73c0 .16-1.65.28-3.68.28s-3.68-.13-3.68-.28 1.65-.28 3.68-.28 3.68.13 3.68.28z" fill="#fff"/><path d="m100.82 89.64 28.42 14.62 41.29-26.93 13.86 16.91-43.97 34.76-30.98.02-19.3-27.37z" fill="#455a64"/><path d="m109.43 129.05-.01-.01-19.31-27.39.01-.02 10.69-12.02.02.01 28.41 14.61 41.3-26.93.02.02 13.87 16.93-.02.02-43.97 34.77h-.01z" fill="#455a64"/><path d="m100.82 89.64 28.42 14.62 41.93-27.77 13.22 17.75-43.97 34.76-30.98.02-19.3-27.37z" opacity=".3"/><path d="m252.13 90.26c-11.26 27.52-42.75 40.68-70.33 29.4-27.58-11.29-40.82-42.74-29.56-70.26s42.75-40.68 70.33-29.39c27.58 11.27 40.81 42.73 29.56 70.25z" fill="#00c1af"/><path d="m240.24 85.39c-8.58 20.97-32.57 31-53.6 22.4-21.02-8.6-31.1-32.57-22.52-53.54s32.58-31 53.6-22.4 31.1 32.57 22.52 53.54z" fill="#00c1af"/><path d="m240.24 85.39c-.01-.01.05-.22.18-.64.15-.46.35-1.07.61-1.86.14-.41.29-.86.46-1.36.14-.51.25-1.08.4-1.69.28-1.22.65-2.62.8-4.24.52-3.21.55-7.23-.13-11.78-.7-4.54-2.3-9.64-5.27-14.62-2.97-4.95-7.25-9.87-13.02-13.5-5.74-3.58-12.79-6.24-20.46-6.44-1.91-.15-3.84.03-5.79.15-.97.1-1.94.29-2.92.44-.98.12-1.95.37-2.91.63-1.96.42-3.84 1.18-5.76 1.87-1.84.88-3.73 1.7-5.48 2.85-3.52 2.19-6.89 4.84-9.63 8.15-2.77 3.27-5.08 7.01-6.8 11.07-1.62 4.1-2.6 8.39-2.91 12.67-.37 4.29.18 8.54 1.15 12.57.44 2.04 1.22 3.95 1.91 5.87.89 1.84 1.69 3.7 2.79 5.37.96 1.76 2.24 3.28 3.41 4.85 1.31 1.45 2.56 2.93 4.03 4.16 5.61 5.23 12.5 8.27 19.11 9.75 6.67 1.45 13.17.94 18.75-.51 5.61-1.47 10.32-3.99 14.01-6.73 3.67-2.77 6.47-5.66 8.35-8.32 1.03-1.26 1.75-2.51 2.41-3.58.32-.54.64-1.02.9-1.48.23-.47.44-.9.63-1.29.37-.74.65-1.32.87-1.75.19-.41.3-.61.31-.61.01.01-.07.22-.24.62-.2.44-.46 1.03-.79 1.79-.18.4-.38.84-.59 1.32-.24.47-.55.96-.87 1.51-.63 1.09-1.34 2.37-2.36 3.65-1.85 2.7-4.64 5.66-8.33 8.5-3.7 2.82-8.46 5.41-14.14 6.94-5.66 1.51-12.26 2.06-19.05.62-6.73-1.47-13.76-4.54-19.5-9.86-1.5-1.25-2.78-2.76-4.12-4.24-1.2-1.59-2.5-3.15-3.49-4.94-1.13-1.71-1.95-3.6-2.86-5.48-.71-1.96-1.5-3.91-1.96-5.99-1-4.11-1.56-8.45-1.19-12.83.32-4.37 1.32-8.75 2.97-12.94 1.76-4.14 4.11-7.96 6.95-11.3 2.8-3.38 6.25-6.09 9.84-8.31 1.78-1.16 3.71-2 5.59-2.89 1.96-.7 3.88-1.47 5.88-1.9.99-.26 1.97-.52 2.97-.64 1-.14 1.99-.34 2.98-.44 1.99-.11 3.96-.29 5.91-.13 7.82.23 14.99 2.96 20.81 6.63 5.86 3.73 10.18 8.76 13.16 13.79 2.98 5.08 4.56 10.25 5.22 14.86.64 4.61.55 8.68-.02 11.9-.18 1.63-.57 3.04-.88 4.26-.16.61-.28 1.18-.44 1.69-.18.5-.35.95-.5 1.36-.29.77-.52 1.38-.69 1.83-.16.42-.25.63-.26.62z" fill="#263238"/><path d="m239.78 85.67c-.23-.09.29-1.82.88-4.98.56-3.15 1.14-7.81.42-13.44-.36-2.81-1.03-5.84-2.16-8.96-1.15-3.1-2.72-6.29-4.85-9.32-1.06-1.52-2.23-3.01-3.56-4.41-1.32-1.41-2.75-2.77-4.34-4-1.58-1.23-3.25-2.4-5.06-3.41s-3.71-1.9-5.69-2.66c-2-.73-4.02-1.3-6.05-1.72s-4.06-.63-6.06-.73c-2-.11-3.98-.01-5.9.19-1.92.19-3.79.55-5.58 1-3.59.9-6.87 2.28-9.77 3.87-2.89 1.62-5.39 3.47-7.5 5.36-4.23 3.79-6.85 7.69-8.48 10.44-1.63 2.77-2.37 4.43-2.6 4.34-.17-.06.18-1.87 1.53-4.9 1.35-3.01 3.79-7.27 8.06-11.49 2.13-2.1 4.7-4.17 7.73-6 3.03-1.8 6.5-3.38 10.33-4.42 1.91-.53 3.91-.95 5.98-1.18 2.06-.25 4.19-.37 6.35-.28 2.16.08 4.36.3 6.55.74s4.38 1.05 6.53 1.84c2.14.81 4.2 1.78 6.14 2.88 1.95 1.1 3.75 2.37 5.44 3.72s3.22 2.83 4.62 4.37c1.41 1.53 2.64 3.16 3.75 4.81 2.22 3.3 3.8 6.76 4.92 10.1 1.09 3.35 1.67 6.61 1.91 9.59.46 5.98-.49 10.8-1.44 13.96-1.01 3.16-1.93 4.76-2.1 4.69z" opacity=".3"/><path d="m197.2 94.29-2.62 6.67-5.95-2.34 2.55-6.49c-5.75-2.67-10.69-6.73-12.96-10.58l6.12-5.98c2.11 3.37 5.77 6.66 9.89 8.76l3.9-9.94c-5.98-4.2-12.5-9.3-9.16-17.81 2.48-6.31 9.19-9.93 19.01-7.31l2.59-6.61 5.95 2.34-2.55 6.49c4.32 2.11 8.2 5 10.66 8.37l-5.85 6.16c-2.36-2.92-5.06-5.14-7.89-6.67l-3.97 10.12c6 4.14 12.4 9.19 9.11 17.59-2.41 6.18-9.04 9.76-18.83 7.23zm4.37-28.66 3.32-8.45c-3.43-.52-5.36.71-6.13 2.68-.82 2.08.52 3.91 2.81 5.77zm4.61 18.37c.82-2.09-.47-3.89-2.67-5.79l-3.22 8.22c3.23.51 5.14-.52 5.89-2.43z" opacity=".3"/><path d="m64.46 41.74 4.46 44.19c.76 7.51 3.41 18.4 15.23 16.66 10.15-2.28 11.77-12.32 11.05-19.33-.34-3.33-.61-6.1-.63-6.44 0 0 11.14-2.19 10.83-13.41-.15-5.42-1.37-16.56-2.59-26.62-1.31-10.81-10.71-18.79-21.59-18.36l-1.08.04c-11.63 1.15-17.15 11.67-15.68 23.27z" fill="#ffbe9d"/><path d="m94.57 76.81s-7.05.7-14.77-3.73c0 0 3.89 8.04 15.03 6.59z" fill="#eb996e"/><path d="m84.34 43.49c-.2.25-1.59-.64-3.46-.48-1.87.13-3.15 1.23-3.38 1.01-.11-.1.07-.53.63-1.03.55-.49 1.51-1.01 2.68-1.1 1.16-.09 2.18.27 2.78.67.62.41.85.82.75.93z" fill="#263238"/><path d="m84.72 48.12c.06.8-.57 1.51-1.4 1.59s-1.55-.5-1.62-1.3c-.06-.8.57-1.51 1.4-1.59.84-.09 1.56.5 1.62 1.3z" fill="#263238"/><path d="m90.47 55.91c-.01-.1 1.05-.33 2.78-.62.44-.06.85-.17.91-.47.09-.32-.11-.79-.35-1.29-.46-1.05-.93-2.15-1.44-3.3-2-4.7-3.46-8.57-3.27-8.64.19-.08 1.96 3.66 3.96 8.36.48 1.16.94 2.26 1.38 3.32.19.49.5 1.05.3 1.72-.11.33-.42.58-.7.67-.28.1-.53.11-.74.13-1.74.16-2.82.21-2.83.12z" fill="#263238"/><path d="m82.76 36.58c-.13.43-1.66.29-3.43.59-1.78.26-3.2.85-3.45.48-.11-.18.12-.59.69-1.03.56-.44 1.46-.87 2.53-1.03s2.05-.03 2.71.22c.66.24 1 .57.95.77z" fill="#263238"/><path d="m100.82 38.03c-.16.36-1.65.15-3.42.29-1.77.11-3.2.54-3.43.21-.1-.16.16-.49.74-.83s1.49-.65 2.55-.73 2.02.1 2.66.34c.65.25.97.55.9.72z" fill="#263238"/><path d="m65.7 50c-.19-.08-7.79-1.97-7.24 5.68s8.12 5.52 8.12 5.3c0-.21-.88-10.98-.88-10.98z" fill="#ffbe9d"/><path d="m64.03 58.26c-.04-.02-.13.1-.34.22s-.59.21-1 .09c-.83-.24-1.6-1.47-1.74-2.85-.07-.7.03-1.37.24-1.94.19-.58.53-.99.93-1.1.4-.12.7.1.81.31.12.21.08.36.12.37.02.02.16-.14.07-.45-.04-.15-.15-.32-.34-.46s-.47-.19-.75-.14c-.59.08-1.08.66-1.31 1.29-.26.63-.39 1.39-.31 2.17.16 1.54 1.05 2.92 2.18 3.17.55.1.99-.09 1.2-.29.24-.21.27-.38.24-.39z" fill="#eb996e"/><path d="m89.27 61.38c.06-.2-1.48-.48-2.69-1.76-.6-.63-.99-1.35-1.28-1.87-.28-.53-.49-.86-.57-.82-.07.03-.01.41.18.99s.55 1.4 1.23 2.12c.67.72 1.51 1.11 2.11 1.27.61.17 1.01.14 1.02.07z" fill="#263238"/><path d="m101.39 42.27c-.2.25-1.59-.64-3.46-.48-1.87.13-3.15 1.23-3.38 1.01-.11-.1.07-.53.63-1.03.55-.49 1.51-1.01 2.68-1.1 1.16-.09 2.18.27 2.78.67.61.41.84.81.75.93z" fill="#263238"/><path d="m100.41 47.18c.06.8-.57 1.51-1.4 1.59s-1.55-.5-1.62-1.3c-.06-.8.57-1.51 1.4-1.59.84-.09 1.56.5 1.62 1.3z" fill="#263238"/><path d="m108.89 21.16c-1.71-2.34-5.3-3.04-7.77-1.52.29-3.58-2.03-7.2-5.4-8.44s-7.49.03-9.58 2.94c-.26-.93-1.02-1.66-1.89-2.07-.88-.4-1.86-.51-2.83-.51-3 .01-5.99 1.09-8.32 2.99-1.22 1-2.24 2.22-3.04 3.58-4.46-.02-8.95 2.12-11.56 5.77-3.13 4.37-2.76 13.63 2.06 21.13l1.49 4.87c1.23-.14 2.36-.18 3.2.41 1.13.81 1.79 2.5 3.43 1.64.83-.44 1.42-2.35 1.61-3.27 1.27-6.11 1.19-12.49-.2-18.56 1.07-1.44 2.42-2.66 3.95-3.59l-.12.13c2.98-1.43 6.37-2.89 9.48-1.77 2.41.87 4.02 3.09 5.95 4.79 3.64 3.22 8.23 4.67 13.08 4.33.52 3.11.76 7.56 1.28 10.67l2.06-5.31.01.02c.17-.39.31-.78.44-1.17l.05-.12v-.01c.44-.45.72-1.2 1.43-2.23 1.37-1.98 1.5-4.74.32-6.84 2.17-1.9 2.58-5.53.87-7.86z" fill="#263238"/><path d="m106.97 36.23-.01-.01z" fill="#263238"/><path d="m104.35 21.79c.01 0 .03.05.07.16s.09.27.13.48c.07.43.08 1.1-.24 1.84-.16.37-.4.75-.74 1.08s-.8.61-1.32.75c-1.03.29-2.38.08-3.31-.84l.17-.18c.4.35.67.88.71 1.43.06.74-.18 1.48-.63 2.02-.46.53-1.1.84-1.71.97-1.25.27-2.4-.08-3.23-.51-.84-.43-1.43-.91-1.84-1.23-.4-.33-.61-.53-.6-.54s.24.16.66.46 1.03.75 1.85 1.15 1.92.7 3.1.44c.58-.13 1.16-.42 1.58-.9.41-.48.63-1.16.57-1.83-.04-.5-.27-.96-.62-1.26l.17-.18c.85.85 2.11 1.06 3.08.8 1-.25 1.66-1 1.97-1.69.32-.7.35-1.34.3-1.76-.05-.43-.14-.66-.12-.66z" fill="#455a64"/><path d="m93.87 14.52c0-.01.06.01.17.05.11.05.27.12.46.24.38.23.92.64 1.32 1.36.4.7.57 1.79.05 2.77-.25.48-.7.92-1.28 1.11-.57.19-1.24.17-1.81-.14-.18-.1-.34-.23-.47-.37l.2-.15c.31.54.31 1.18.14 1.72s-.54.99-.98 1.26c-.88.56-1.89.52-2.6.29-.72-.24-1.21-.62-1.52-.9s-.44-.47-.43-.48.17.15.49.4.81.6 1.51.8c.68.2 1.62.21 2.42-.31.39-.26.72-.65.87-1.14.16-.48.14-1.05-.12-1.52l-.51-.89.71.74c.11.12.25.23.41.32.5.27 1.1.3 1.61.13.52-.17.92-.55 1.15-.99.48-.9.36-1.91 0-2.58-.36-.69-.86-1.11-1.21-1.36-.36-.24-.59-.34-.58-.36z" fill="#455a64"/><path d="m118.68 364.43-.8 37.96 49.97 1.18c-.17-4.52-25.79-14.19-25.79-14.19l1.57-24.3z" fill="#455a64"/><path d="m126.67 386.97c-.97.23-1.67 1.24-1.47 2.17s1.28 1.61 2.26 1.4 1.85-1.4 1.54-2.3-1.63-1.63-2.52-1.2" fill="#fff" opacity=".6"/><path d="m117.88 402.39.24-3.82 47.82 2.56s2.2.97 1.91 2.44z" fill="#fff" opacity=".6"/><path d="m142.89 389.16c-.01.23-1.24.31-2.46 1.02-1.24.68-1.89 1.67-2.11 1.57-.22-.05.18-1.42 1.67-2.26 1.49-.85 2.95-.54 2.9-.33z" fill="#263238"/><path d="m148.07 391.33c.05.22-1.02.59-1.87 1.55-.88.93-1.12 1.98-1.36 1.97-.23.03-.36-1.32.72-2.49 1.08-1.18 2.51-1.25 2.51-1.03z" fill="#263238"/><path d="m150.89 397.33c-.22.04-.53-1.12.13-2.36.65-1.25 1.81-1.72 1.91-1.53.13.19-.63.85-1.15 1.89-.55 1.01-.64 1.98-.89 2z" fill="#263238"/><path d="m142.59 383.58c-.11.21-1.22-.14-2.6-.08-1.38.03-2.47.44-2.59.24-.14-.17.93-1 2.56-1.04 1.63-.05 2.76.71 2.63.88z" fill="#263238"/><path d="m141.55 377.95c0 .1-.97.22-2.5-.07-.76-.14-1.66-.4-2.6-.82-.47-.21-.95-.46-1.42-.75-.23-.15-.5-.29-.74-.57-.26-.25-.4-.86-.08-1.23.27-.36.72-.5 1.08-.5.37 0 .67.07.94.14.55.14 1.07.33 1.54.54.94.43 1.71.97 2.27 1.49 1.13 1.04 1.51 1.91 1.42 1.96-.11.07-.66-.66-1.82-1.53-.58-.43-1.32-.88-2.2-1.24-.44-.18-.92-.33-1.43-.45-.53-.14-.98-.16-1.12.06-.05.08-.06.12.05.27.11.14.32.27.54.42.43.28.87.53 1.3.75.86.43 1.69.73 2.4.93 1.44.39 2.38.48 2.37.6z" fill="#263238"/><path d="m141.22 378.28c-.09.03-.55-.8-.6-2.3-.02-.74.08-1.64.41-2.58.17-.47.39-.95.68-1.42.31-.46.68-1.08 1.63-1.16.49-.01.9.37 1.03.68.16.32.18.6.23.87.08.55.05 1.09-.04 1.59-.18 1-.64 1.83-1.13 2.42-1.01 1.2-2.03 1.45-2.05 1.37-.08-.12.78-.54 1.56-1.7.38-.57.73-1.33.85-2.2.06-.44.07-.9-.01-1.37-.07-.5-.25-.91-.45-.87-.25-.01-.68.36-.9.75-.27.42-.48.85-.65 1.27-.34.85-.49 1.66-.55 2.35-.11 1.39.13 2.26-.01 2.3z" fill="#263238"/><path d="m71.88 348.81-20.42 26.87 35.3 26.98c2.24-3.34-11.12-23.68-11.12-23.68l13.84-16.65z" fill="#455a64"/><path d="m65.83 369.19c-.82-.35-1.85.02-2.19.79s.08 1.82.9 2.18c.81.36 2.06-.04 2.31-.85s-.32-2.02-1.18-2.18" fill="#fff" opacity=".6"/><path d="m51.45 375.68 2.17-2.62 33.03 26.85s1.08 1.85.1 2.75z" fill="#fff" opacity=".6"/><path d="m76.34 379.25c-.13.16-1.05-.43-2.3-.55-1.25-.16-2.23.21-2.34.03-.13-.15.87-.93 2.38-.75 1.52.16 2.41 1.15 2.26 1.27z" fill="#263238"/><path d="m78.93 383.52c-.08.19-1.04-.11-2.15.13-1.12.21-1.84.84-2.01.7-.18-.1.43-1.14 1.82-1.41 1.39-.28 2.46.42 2.34.58z" fill="#263238"/><path d="m77.82 389.31c-.18-.08.2-1.08 1.33-1.63 1.12-.56 2.21-.29 2.17-.1-.01.21-.9.29-1.81.75-.93.45-1.5 1.09-1.69.98z" fill="#263238"/><path d="m79.04 375.09c-.19.09-.8-.74-1.83-1.42-1.01-.7-2-.97-1.99-1.18-.01-.19 1.19-.23 2.39.59 1.21.81 1.62 1.94 1.43 2.01z" fill="#263238"/><path d="m81.24 370.49c-.05.07-.81-.35-1.76-1.36-.47-.5-.98-1.16-1.44-1.95-.23-.4-.44-.83-.62-1.28-.09-.22-.2-.47-.23-.8-.06-.32.16-.83.59-.93.38-.12.78.02 1.04.21.27.19.44.4.6.59.32.39.6.79.83 1.2.45.8.72 1.59.85 2.26.27 1.34.08 2.16 0 2.15-.12-.01-.13-.82-.51-2.05-.19-.61-.49-1.32-.93-2.04-.22-.36-.49-.72-.79-1.07-.3-.38-.62-.62-.84-.54-.08.03-.1.05-.1.22.01.16.09.37.17.59.16.43.35.84.55 1.22.39.76.83 1.41 1.23 1.92.8 1.02 1.43 1.58 1.36 1.66z" fill="#263238"/><path d="m80.84 370.56c-.08-.02.03-.87.77-1.97.37-.54.92-1.13 1.64-1.64.37-.25.78-.48 1.23-.67.46-.17 1.05-.42 1.78.02.36.25.45.73.38 1.03-.06.31-.18.53-.29.75-.23.44-.53.81-.86 1.12-.66.62-1.42.98-2.08 1.15-1.35.34-2.22-.02-2.19-.09.01-.13.85.02 2.01-.41.57-.21 1.22-.57 1.76-1.14.27-.28.52-.61.71-.99.22-.4.3-.79.13-.86-.17-.14-.68-.1-1.04.07-.41.16-.79.36-1.13.57-.68.43-1.22.93-1.62 1.4-.81.95-1.09 1.7-1.2 1.66z" fill="#263238"/><path d="m77.83 198.77 6.07 19.76c1.56 5.08 4.35 9.69 8.13 13.42 3.92 3.87 8.53 8.47 9.28 9.37l18.44 59.84-4.29 79.79 31.78 2.15s12.5-81.48 10.48-94.08-14.84-96.71-14.84-96.71l-3.37-5.85z" fill="#263238"/><path d="m104.3 243.47-3.22 58.79-42.27 57.45 26.5 18.07 57.01-66.56.56-77.02z" fill="#263238"/><path d="m101.31 241.33c.01 0 .05.09.12.28.08.21.17.49.3.83.26.77.63 1.84 1.1 3.21.95 2.84 2.3 6.89 3.98 11.93 3.34 10.18 7.99 24.34 13.25 40.38l.02.05v.05c-.18 3.43-.36 7.03-.55 10.7-1.04 19.39-1.98 36.94-2.67 49.68-.37 6.33-.67 11.46-.88 15.05-.11 1.75-.2 3.12-.27 4.09-.03.44-.06.79-.08 1.06-.02.24-.04.36-.05.36s-.01-.12-.01-.36c.01-.27.02-.62.03-1.07.04-.97.09-2.35.16-4.1.17-3.59.4-8.73.69-15.06.64-12.75 1.52-30.3 2.5-49.69.19-3.66.38-7.26.56-10.7l.01.1c-5.19-16.07-9.77-30.24-13.07-40.44-1.61-5.06-2.91-9.14-3.81-11.99-.43-1.38-.76-2.46-1-3.24-.1-.35-.18-.62-.25-.84-.07-.18-.09-.28-.08-.28z" fill="#455a64"/><path d="m67.65 81.59s-10.43 16.3-8.42 29.91c1.02 6.87 18.8 76.45 18.8 76.45l-.2 23.92 68.08-14.05-6.85-24.26-20.21-71.56-23.8-20.06z" fill="#455a64"/><path d="m75.19 116.68s33 23.53 44.59 23.24l9.86.28-1.51-5.35z" opacity=".3"/><path d="m82.1 120.26c.03.05-.92.74-2.56 1.69-1.65.94-4.01 2.11-6.73 3.11-2.73.99-5.28 1.63-7.15 1.97s-3.04.43-3.05.37c-.01-.08 1.14-.29 2.97-.73 1.83-.43 4.35-1.11 7.04-2.1s5.05-2.09 6.73-2.94c1.69-.86 2.71-1.44 2.75-1.37z" fill="#263238"/><path d="m131.26 148.45c.04.14-13.12 3.63-29.39 7.79s-29.48 7.42-29.52 7.28 13.12-3.63 29.39-7.79 29.49-7.42 29.52-7.28z" fill="#263238"/><path d="m140.51 180.67c0 .02-.21.07-.63.15-.47.09-1.07.2-1.82.34-1.58.3-3.86.76-6.66 1.39-5.61 1.24-13.3 3.21-21.78 5.44-8.48 2.24-16.16 4.27-21.75 5.62-2.79.68-5.06 1.19-6.64 1.51-.75.14-1.35.26-1.82.35-.42.07-.64.11-.64.09s.21-.08.62-.19c.46-.12 1.06-.26 1.8-.45 1.62-.41 3.86-.98 6.59-1.67 5.61-1.49 13.25-3.52 21.7-5.77 8.48-2.23 16.19-4.14 21.83-5.29 2.82-.59 5.11-.99 6.7-1.23.75-.1 1.36-.18 1.84-.25.44-.04.66-.06.66-.04z" fill="#263238"/><path d="m190.84 90.8s.22-2.65 2.07-5.58 6.83-6.26 6.91-8.56c.09-2.3 2.65-1.31 2.95 1.43.19 1.75-1.91 7.09-1.91 7.09s4.29-.2 6.49-2.53 10.67-7.88 12.06-6.88c1.57 1.13-.72 2.36-1.59 3.26-.66.69-5.92 5.62-5.92 5.62s12.18-4.13 13.9-4.01c1.88.13.6 2.14-.17 2.4-.48.17 1.52.99.44 2.83-.73 1.25-5.44 3.87-6.82 4.31l-2.85.9 8.96-1.7s1.92.92.04 2.27c-.84.6-26.03 12.32-28.03 13.06-3.47 1.27-8.47 2.9-8.47 2.9l-4.49-14.63z" fill="#ffbe9d"/><path d="m225.64 83.05c.08.14-2.99 2-6.95 3.95-3.95 1.97-7.33 3.2-7.39 3.04-.03-.08.77-.46 2.07-1.09 1.51-.74 3.2-1.56 5.06-2.47 1.86-.92 3.55-1.75 5.05-2.49 1.3-.63 2.12-1.01 2.16-.94z" fill="#eb996e"/><path d="m67.96 112.59s44.5 26.91 65.23 21.56 62.48-24.2 62.48-24.2l-9.64-22.52-55.52 19.97s-39.75-18.58-48.28-21.18c-12.54-3.84-29.58 12.69-14.27 26.37z" fill="#455a64"/><path d="m97.93 92.58s.2.06.59.2c.39.15.97.35 1.71.66 1.5.59 3.7 1.53 6.52 2.76 5.64 2.48 13.78 6.22 23.85 11l-.15-.01c14.74-5.32 33.91-12.25 55.49-20.05l.25-.09.1.24c3.1 7.25 6.33 14.78 9.65 22.52l.11.26-.26.11c-2.57 1.13-5.31 2.34-8.08 3.57-8.12 3.53-16.09 6.86-23.84 9.95-7.76 3.07-15.29 5.94-22.59 8.3-1.84.56-3.63 1.18-5.44 1.65-.9.25-1.8.5-2.69.74-.92.17-1.82.42-2.73.48-3.65.41-7.22.1-10.59-.46-6.75-1.16-12.82-3.19-18.24-5.24-10.84-4.17-19.19-8.53-24.9-11.58-2.85-1.54-5.04-2.8-6.51-3.66-.72-.43-1.27-.76-1.66-1-.37-.23-.55-.36-.55-.36s.2.1.58.31c.4.22.96.54 1.69.95 1.49.83 3.69 2.05 6.56 3.57 5.74 2.99 14.11 7.29 24.94 11.4 5.42 2.02 11.47 4.01 18.17 5.15 3.35.54 6.88.84 10.45.42.9-.06 1.77-.31 2.67-.47.88-.25 1.78-.49 2.67-.74 1.8-.48 3.59-1.1 5.42-1.66 7.28-2.37 14.8-5.24 22.55-8.32 7.74-3.09 15.71-6.43 23.82-9.96 2.77-1.22 5.51-2.43 8.07-3.56l-.15.38c-3.31-7.74-6.53-15.28-9.63-22.52l.35.15c-21.6 7.74-40.79 14.61-55.55 19.9l-.08.03-.08-.04c-10.04-4.83-18.16-8.62-23.77-11.16-2.81-1.27-4.99-2.23-6.48-2.86-.73-.31-1.29-.54-1.69-.71-.36-.15-.55-.25-.55-.25z" fill="#263238"/><path d="m90.04 90.11c-.02.03-.46-.16-1.26-.51s-1.95-.87-3.41-1.41c-1.46-.53-3.23-1.1-5.26-1.36-2.02-.28-4.3-.19-6.53.54-2.27.74-4.19 2.13-5.35 3.81l-.01.01-.01.01c-2.05 2.24-3.19 4.62-3.8 6.34-.61 1.73-.76 2.8-.83 2.78-.02 0-.01-.27.06-.77.08-.5.22-1.22.49-2.1.54-1.77 1.64-4.24 3.72-6.57l-.02.03c1.2-1.8 3.22-3.27 5.58-4.03 2.32-.76 4.69-.84 6.76-.52 2.08.3 3.87.91 5.32 1.5 1.46.59 2.59 1.16 3.37 1.57.78.39 1.19.65 1.18.68z" fill="#263238"/><path d="m108.83 98.2c.03.01-.1.42-.36 1.16-.26.73-.67 1.78-1.19 3.07-1.04 2.58-2.56 6.11-4.36 9.95-1.81 3.84-3.56 7.26-4.88 9.71-.66 1.22-1.21 2.21-1.6 2.88s-.63 1.03-.66 1.02c-.03-.02.14-.41.48-1.11.39-.79.88-1.78 1.45-2.95 1.24-2.49 2.93-5.93 4.73-9.76s3.37-7.34 4.49-9.87c.53-1.19.98-2.2 1.34-3 .34-.73.53-1.12.56-1.1z" fill="#263238"/><path d="m134.16 133.23c-.14.02-1.06-5.55-2.06-12.45-.99-6.9-1.68-12.5-1.54-12.52s1.06 5.55 2.06 12.45c.99 6.89 1.68 12.5 1.54 12.52z" fill="#263238"/><path d="m168.91 121.42c-.03.01-.22-.3-.54-.87-.32-.58-.76-1.42-1.29-2.47-1.07-2.09-2.52-4.99-4.08-8.21-1.57-3.22-2.96-6.15-3.95-8.28-.49-1.07-.88-1.93-1.14-2.54-.26-.6-.39-.95-.36-.96.03-.02.22.29.54.87s.76 1.42 1.29 2.46c1.07 2.09 2.52 5 4.09 8.22s2.96 6.15 3.95 8.29c.49 1.07.88 1.93 1.14 2.54.25.59.38.93.35.95z" fill="#263238"/><path d="m167.89 343.96 27 59.61h13.03l1.86-4.55 2.32 4.55h8.55l-1-34.8-.42-20.56z" fill="#00c1af"/><path d="m167.99 344.2 26.99 59.6h13.03l1.87-4.55 2.31 4.55h8.55l-.99-34.79-.42-20.56z" opacity=".3"/><path d="m286.04 350.35 26.33 53.22h13.03l1.87-4.17 2.31 4.17h8.55l-.99-31.85-.42-18.82z" fill="#00c1af"/><path d="m286.14 350.58 26.33 53.22h13.03l1.86-4.16 2.32 4.16h8.55l-1-31.85-.42-18.82z" opacity=".3"/><path d="m435.79 193.49c0-.01.09.02.25.09.19.08.42.18.7.3.59.31 1.48.79 2.45 1.63.97.83 2.05 2.01 2.96 3.59.9 1.58 1.64 3.59 1.78 5.9.18 2.3-.41 4.89-1.83 7.21-1.41 2.32-3.67 4.36-6.5 5.55-2.8 1.18-6.3 1.45-9.37-.02-1.52-.73-2.84-2.03-3.47-3.68-.66-1.61-.62-3.64.48-5.15 1.07-1.51 2.85-2.32 4.59-2.44 1.78-.13 3.48.57 4.81 1.59 2.7 2.08 3.95 5.44 3.86 8.49-.07 3.08-1.27 5.9-2.97 8-.86 1.05-1.84 1.95-2.91 2.62s-2.19 1.15-3.29 1.49c-2.22.64-4.34.7-6.15.46-1.81-.23-3.32-.72-4.49-1.23-1.18-.5-2.02-1.05-2.57-1.42-.25-.19-.45-.34-.61-.46-.14-.11-.2-.16-.2-.17.04-.07 1.11.91 3.46 1.87 1.17.48 2.66.94 4.44 1.13 1.78.21 3.85.12 6.01-.52 1.07-.34 2.15-.82 3.18-1.48s1.97-1.53 2.79-2.56c1.63-2.05 2.78-4.78 2.83-7.74.07-2.93-1.14-6.12-3.69-8.07-1.25-.96-2.85-1.59-4.47-1.48-1.61.11-3.24.88-4.2 2.23-.98 1.34-1.02 3.16-.42 4.66.58 1.53 1.79 2.72 3.22 3.41 2.89 1.39 6.26 1.16 8.96.03 2.73-1.14 4.93-3.1 6.31-5.34 1.39-2.24 1.98-4.73 1.83-6.96-.11-2.24-.8-4.22-1.67-5.78-.87-1.57-1.9-2.74-2.84-3.58-1.89-1.69-3.31-2.09-3.26-2.17z" fill="#00c1af"/><path d="m422.9 247.42c3.92 88.45-70.23 132.58-154.17 132.58s-151.98-57.47-151.98-128.36 68.04-128.36 151.98-128.36 151.03 53.32 154.17 124.14z" fill="#00c1af"/><path d="m258.14 154.99s10.08-3.2 19.51 7.46 22.55 28.82 22.55 28.82c-1.18 5.91-4.63 10.52-11.32 13.26z" opacity=".3"/><ellipse cx="168.8" cy="303.73" fill="#00c1af" rx="52.04" ry="39.88"/><path d="m217.33 197.11s30.5-47.32 44.47-42.19 27.08 49.6 27.08 49.6" fill="#00c1af"/><path d="m182.84 186.27-1.43-12.81s-19.1-7.98-36.2-11.89-20.47 0-20.47 0l27.05 37.91z" fill="#00c1af"/><path d="m223.55 140.88 10.12 6.01s49.02-12.97 86.66 0l-13.81-11.75s-45.65-9.81-82.97 5.74z" opacity=".3"/><ellipse cx="164.43" cy="302.6" opacity=".3" rx="52.04" ry="39.88"/><ellipse cx="155.57" cy="303.73" fill="#00c1af" rx="48.75" ry="39.88"/><path d="m138.72 322.44h-3.76c-1.84 0-3.34-1.49-3.34-3.34v-30.75c0-1.84 1.49-3.34 3.34-3.34h3.76c1.84 0 3.34 1.49 3.34 3.34v30.75c0 1.84-1.5 3.34-3.34 3.34z" opacity=".3"/><path d="m166.73 322.44h-3.76c-1.84 0-3.34-1.49-3.34-3.34v-30.75c0-1.84 1.49-3.34 3.34-3.34h3.76c1.84 0 3.34 1.49 3.34 3.34v30.75c0 1.84-1.49 3.34-3.34 3.34z" opacity=".3"/><path d="m182.3 187.53c4.39-2.48 6.74-6.18 5.09-12.28 0 0-22.65-9.77-39.76-13.68-17.1-3.91-20.47 0-20.47 0l27.05 37.91z" opacity=".3"/><path d="m181.42 188.56s-1.27-.87-3.41-2.3c-10.09-6.74-39.57-25.99-47.04-26.21-10.26-.3-10.28 8.55-10.26 15.39.01 4.85 3.99 47.03 3.99 47.03" fill="#00c1af"/><path d="m288.88 204.53c-.01 0-.05-.1-.12-.29-.08-.22-.17-.51-.29-.87-.27-.8-.64-1.92-1.12-3.35-.99-2.9-2.45-7.09-4.46-12.19-2.02-5.09-4.54-11.12-7.99-17.48-1.75-3.16-3.69-6.45-6.19-9.47-1.24-1.51-2.61-2.98-4.24-4.16-1.61-1.17-3.51-2.13-5.56-1.89-2.03.17-3.95 1.01-5.7 1.98-1.76.99-3.38 2.17-4.91 3.39-3.06 2.47-5.76 5.15-8.25 7.78-4.95 5.29-9.01 10.4-12.34 14.75-3.32 4.36-5.89 7.98-7.65 10.49-.86 1.24-1.53 2.21-2.01 2.9-.22.31-.39.56-.53.75-.12.17-.19.25-.19.25-.01 0 .04-.1.15-.28.12-.2.28-.46.48-.78.43-.68 1.08-1.68 1.93-2.96 1.71-2.55 4.23-6.2 7.52-10.6 3.3-4.38 7.34-9.54 12.29-14.86 2.48-2.65 5.2-5.35 8.28-7.85 1.55-1.24 3.18-2.43 4.98-3.44 1.79-1 3.75-1.87 5.92-2.05 1.07-.09 2.18.04 3.17.45.98.4 1.89.93 2.73 1.54 1.68 1.22 3.07 2.72 4.32 4.25 2.53 3.07 4.46 6.39 6.21 9.56 3.45 6.4 5.94 12.46 7.92 17.58 1.96 5.13 3.38 9.34 4.3 12.26.46 1.46.81 2.6 1.03 3.38.1.37.18.66.24.89.07.21.09.31.08.32z" fill="#263238"/><path d="m306.52 135.14c.01-.01.09.05.25.18.18.15.41.33.7.57.64.53 1.53 1.28 2.66 2.22 2.32 1.97 5.64 4.78 9.72 8.25l.65.55-.82-.23c-5.03-1.41-11.08-2.84-17.89-3.9-6.8-1.06-14.35-1.74-22.27-1.82-18.88-.31-35.43 3.24-45.44 6.11l-.07.02-.06-.03c-3.28-1.92-5.88-3.45-7.69-4.51-.86-.52-1.54-.92-2.03-1.22-.21-.13-.38-.24-.52-.32-.11-.07-.17-.12-.17-.12 0-.01.07.02.19.08.14.08.32.17.54.28.5.28 1.19.66 2.07 1.14 1.83 1.04 4.46 2.52 7.77 4.39l-.12-.01c5.02-1.48 11.63-3.17 19.4-4.4 3.88-.64 8.05-1.11 12.43-1.49 4.38-.29 8.97-.53 13.7-.44 7.96.08 15.53.78 22.34 1.87 6.82 1.08 12.88 2.56 17.91 4.01l-.17.32c-4.04-3.52-7.31-6.37-9.61-8.37-1.11-.98-1.97-1.75-2.6-2.3-.28-.25-.49-.45-.67-.61-.13-.14-.2-.21-.2-.22z" fill="#263238"/><path d="m250.15 266.56c-.23 1.43-1.7 2.5-3.79 3.22-2.1.72-4.81 1.12-7.79 1.15-2.98.04-5.71-.3-7.82-.97-2.1-.68-3.59-1.71-3.86-3.13-.26-1.41.82-2.95 2.91-4.17 2.08-1.23 5.18-2.1 8.65-2.14s6.59.77 8.7 1.95c2.12 1.16 3.23 2.68 3 4.09z" fill="#fff" opacity=".2"/><path d="m184.65 271.71c-.01.01-.1-.05-.29-.17-.21-.14-.47-.31-.81-.53-.36-.24-.79-.54-1.3-.88-.53-.32-1.17-.66-1.87-1.05-2.83-1.53-7.2-3.34-12.88-4.37-2.84-.48-5.99-.81-9.38-.88-3.39-.02-7.02.2-10.78.79-7.51 1.16-15.66 3.88-22.89 8.91-1.79 1.27-3.49 2.63-5.04 4.1-1.53 1.49-2.98 3.02-4.24 4.67-2.53 3.27-4.49 6.81-5.84 10.35-2.58 7.18-2.53 14.31-1.28 19.9.63 2.81 1.63 5.23 2.62 7.29 1.08 2.02 2.18 3.66 3.19 4.91.52.61.98 1.16 1.38 1.64.44.43.81.8 1.12 1.1.28.29.51.51.68.69.15.16.23.24.22.25s-.09-.06-.26-.21c-.18-.16-.42-.38-.72-.65-.32-.3-.71-.65-1.16-1.07-.42-.47-.89-1.01-1.43-1.62-1.05-1.24-2.18-2.88-3.29-4.91-1.02-2.07-2.06-4.5-2.72-7.34-1.31-5.64-1.41-12.85 1.18-20.14.7-1.8 1.49-3.61 2.5-5.35.96-1.77 2.12-3.48 3.39-5.14 1.27-1.67 2.73-3.23 4.28-4.73 1.57-1.49 3.29-2.86 5.1-4.15 7.31-5.08 15.55-7.81 23.12-8.95 3.8-.58 7.45-.79 10.86-.75 3.42.08 6.58.44 9.44.94 5.72 1.09 10.09 2.96 12.91 4.56.7.41 1.33.76 1.85 1.1.5.36.92.67 1.28.93.32.24.58.43.78.58.2.1.29.18.28.18z" fill="#263238"/><path d="m141.76 288.52c.04 0 .07.57.11 1.59.05 1.12.11 2.58.18 4.34.15 3.67.45 8.73.59 14.34.03 1.4.05 2.77.04 4.1-.01 1.32-.05 2.62-.29 3.84-.42 2.44-1.8 4.51-3.54 5.35-1.76.86-3.46.36-4.3-.22-.44-.3-.7-.62-.85-.85s-.2-.37-.18-.38c.05-.04.28.53 1.15 1.05.82.51 2.43.9 4.02.07 1.58-.82 2.86-2.76 3.24-5.11.21-1.17.25-2.44.25-3.75 0-1.32-.02-2.68-.05-4.08-.14-5.59-.38-10.66-.44-14.34-.04-1.84-.04-3.32-.02-4.35.03-1.03.06-1.6.09-1.6z" fill="#263238"/><path d="m169.41 288.52c.04 0 .07.57.11 1.59.05 1.12.11 2.58.18 4.34.15 3.67.45 8.73.59 14.34.03 1.4.05 2.77.04 4.1-.01 1.32-.05 2.62-.29 3.84-.42 2.44-1.8 4.51-3.54 5.35-1.76.86-3.46.36-4.3-.22-.44-.3-.7-.62-.85-.85s-.2-.37-.18-.38c.05-.04.28.53 1.15 1.05.82.51 2.43.9 4.02.07 1.58-.82 2.86-2.76 3.24-5.11.21-1.17.25-2.44.25-3.75 0-1.32-.02-2.68-.05-4.08-.14-5.59-.38-10.66-.44-14.34-.04-1.84-.04-3.32-.02-4.35s.05-1.6.09-1.6z" fill="#263238"/><path d="m203.74 312.41c.02.01-.06.24-.21.69-.17.44-.36 1.11-.74 1.93-.67 1.66-1.86 3.99-3.65 6.66-1.78 2.67-4.28 5.61-7.41 8.48-1.59 1.41-3.32 2.82-5.22 4.14-1.91 1.31-3.97 2.54-6.16 3.64-4.38 2.19-8.8 3.82-12.97 4.7-4.16.93-8.01 1.11-11.21 1.13-3.21-.02-5.79-.2-7.58-.32-.85-.07-1.53-.12-2.05-.16-.47-.04-.72-.07-.71-.09 0-.02.25-.02.72-.01.52.02 1.21.04 2.06.07 1.79.06 4.37.19 7.57.16 3.19-.06 7-.28 11.11-1.23 4.12-.89 8.48-2.52 12.84-4.7 2.17-1.09 4.21-2.3 6.11-3.59 1.88-1.3 3.61-2.69 5.19-4.08 3.12-2.83 5.62-5.71 7.43-8.34 1.81-2.62 3.04-4.9 3.77-6.53.41-.8.63-1.46.83-1.88.15-.45.26-.67.28-.67z" fill="#263238"/><path d="m141.16 287.41c-.05.02-.17-.41-.69-.99-.5-.57-1.49-1.24-2.86-1.29-1.34-.06-3.02.54-4.22 1.88-.6.66-1.05 1.51-1.28 2.46-.24.95-.3 1.99-.3 3.06.04 4.3.05 8.2.03 11.02-.02 1.33-.04 2.44-.05 3.34-.02.79-.05 1.23-.09 1.23s-.07-.44-.11-1.22c-.03-.9-.07-2.01-.12-3.34-.07-2.82-.15-6.71-.19-11.03 0-1.08.06-2.16.32-3.18s.76-1.95 1.42-2.66c1.33-1.43 3.13-2.04 4.59-1.93 1.48.11 2.52.89 2.99 1.53.25.32.38.61.46.8.09.21.12.32.1.32z" fill="#fff"/><path d="m159.48 289.72c.14 0 .26 5.27.26 11.77s-.12 11.77-.26 11.77-.26-5.27-.26-11.77.12-11.77.26-11.77z" fill="#fff"/><path d="m151.09 267.02c0 .02-.21.03-.62.04-.4.02-1-.01-1.76.04-1.52.04-3.73.21-6.41.7-5.33.93-12.66 3.48-19.13 8.75s-10.46 11.93-12.45 16.96c-1.02 2.53-1.63 4.65-1.98 6.14-.2.74-.29 1.32-.39 1.71-.09.39-.15.6-.16.59s0-.21.06-.61c.07-.4.13-.99.3-1.74.29-1.5.86-3.66 1.84-6.23 1.92-5.11 5.91-11.89 12.46-17.23 6.55-5.33 14-7.86 19.39-8.71 2.71-.44 4.94-.55 6.47-.54.77-.02 1.36.04 1.76.06.41.03.62.05.62.07z" fill="#fff"/><path d="m124.94 216.08c.02.01-.05.2-.18.57-.16.41-.37.94-.62 1.58-.28.68-.61 1.52-.96 2.51s-.79 2.1-1.17 3.36c-.41 1.25-.85 2.62-1.25 4.12-.45 1.48-.81 3.1-1.22 4.79-.75 3.4-1.41 7.17-1.84 11.17-.4 4-.53 7.83-.5 11.31.05 1.74.08 3.39.21 4.94.08 1.55.23 2.98.38 4.29.11 1.31.31 2.49.45 3.53.13 1.04.29 1.93.42 2.65.11.68.21 1.24.28 1.68.06.38.08.59.06.59s-.07-.19-.17-.57c-.1-.43-.22-.98-.37-1.66-.16-.72-.35-1.61-.51-2.64-.17-1.04-.39-2.21-.53-3.53-.17-1.31-.34-2.75-.44-4.3-.15-1.55-.19-3.21-.26-4.96-.06-3.5.06-7.35.46-11.37.43-4.02 1.11-7.81 1.89-11.22.43-1.7.81-3.32 1.27-4.8.42-1.5.88-2.87 1.32-4.12.41-1.26.87-2.36 1.25-3.34.37-.98.73-1.81 1.04-2.48.29-.63.52-1.14.71-1.55.17-.38.27-.56.28-.55z" fill="#fff"/><path d="m126.44 164.07c.04.03-.41.54-1.01 1.59s-1.28 2.67-1.67 4.8c-.42 2.12-.55 4.7-.62 7.57-.08 2.87-.09 6.03-.01 9.34.16 6.63.69 12.61 1.2 16.93.26 2.1.48 3.82.64 5.11.07.55.13 1.01.18 1.39.03.32.04.49.03.49-.02 0-.06-.16-.13-.47-.07-.37-.16-.83-.27-1.38-.22-1.2-.51-2.94-.8-5.09-.6-4.31-1.19-10.31-1.35-16.96-.08-3.32-.05-6.49.05-9.37.09-2.87.26-5.49.74-7.63.45-2.15 1.2-3.8 1.86-4.83.33-.52.62-.9.84-1.14.18-.24.3-.36.32-.35z" fill="#fff"/><path d="m223.78 132.74c.01.02-.21.11-.64.26-.47.17-1.09.39-1.86.66-1.68.58-4 1.38-6.86 2.35-5.77 2.01-13.77 4.79-22.22 8.74-8.46 3.94-15.6 8.52-20.36 12.34-2.39 1.9-4.23 3.55-5.47 4.73-.63.58-1.09 1.06-1.42 1.36-.33.31-.51.47-.52.45-.01-.01.14-.19.44-.53.31-.33.74-.83 1.36-1.43 1.2-1.23 3.01-2.93 5.38-4.87 4.72-3.91 11.89-8.57 20.37-12.52 8.48-3.96 16.51-6.7 22.32-8.62 2.91-.95 5.27-1.7 6.91-2.2.78-.23 1.41-.42 1.89-.56.44-.12.67-.18.68-.16z" fill="#fff"/><path d="m258.58 157.54c.01.02-.14.14-.45.36-.35.25-.79.56-1.33.94-1.17.8-2.83 1.99-4.84 3.52-2.02 1.52-4.36 3.41-6.88 5.59-2.51 2.21-5.19 4.72-7.87 7.48-2.67 2.78-5.07 5.56-7.19 8.14-2.09 2.6-3.89 5.01-5.33 7.09-1.45 2.07-2.58 3.77-3.33 4.97-.36.55-.65 1-.89 1.36-.21.31-.33.47-.34.46-.02-.01.07-.18.25-.51.21-.37.48-.84.81-1.42.7-1.23 1.79-2.97 3.2-5.07 1.4-2.11 3.18-4.55 5.26-7.18 2.1-2.61 4.51-5.41 7.18-8.2 2.69-2.78 5.39-5.29 7.93-7.48 2.55-2.17 4.92-4.04 6.98-5.53 2.05-1.49 3.75-2.64 4.95-3.39.56-.35 1.02-.63 1.39-.86.32-.19.49-.29.5-.27z" fill="#fff"/><path d="m412.7 227.11c.06-.03.54.92 1.18 2.52s1.42 3.85 2.06 6.4c.65 2.55 1.04 4.9 1.24 6.61s.23 2.78.16 2.78c-.08.01-.23-1.04-.53-2.73-.29-1.69-.74-4.01-1.38-6.54s-1.36-4.78-1.9-6.4c-.54-1.61-.9-2.61-.83-2.64z" fill="#fff"/><path d="m388.78 341.74s-.16.13-.49.37c-.35.25-.84.59-1.47 1.05-.65.46-1.46 1.03-2.4 1.69-.48.33-.99.69-1.54 1.07-.56.36-1.16.75-1.79 1.16-5.01 3.36-12.5 7.87-22.17 12.66-2.42 1.18-4.99 2.36-7.67 3.58-1.36.57-2.74 1.16-4.15 1.76-.7.3-1.42.6-2.13.9-.73.28-1.46.56-2.2.85-1.48.57-2.99 1.14-4.52 1.73-1.55.53-3.12 1.08-4.72 1.63-1.59.57-3.23 1.07-4.89 1.58-1.67.49-3.33 1.07-5.06 1.51-6.86 1.97-14.18 3.58-21.83 4.91-7.65 1.31-15.65 2.25-23.88 2.57-8.23.34-16.29.09-24.01-.75-.97-.09-1.93-.19-2.89-.28-.96-.1-1.9-.26-2.85-.38-1.89-.27-3.76-.53-5.6-.8-1.84-.34-3.65-.68-5.45-1.01-.9-.17-1.79-.34-2.68-.5-.88-.2-1.76-.4-2.62-.6-13.93-3.11-26.13-7.32-35.99-11.71-9.87-4.36-17.48-8.71-22.5-12.05-2.57-1.58-4.41-3.04-5.71-3.94-.63-.46-1.11-.81-1.46-1.06-.33-.24-.49-.38-.49-.38s.18.11.52.33c.35.24.85.58 1.49 1.02 1.32.88 3.18 2.31 5.76 3.86 5.04 3.28 12.66 7.58 22.53 11.88 9.85 4.33 22.04 8.5 35.94 11.58.87.2 1.74.39 2.62.59.89.17 1.78.33 2.67.5 1.79.33 3.61.66 5.44 1 1.84.26 3.71.52 5.59.79.94.12 1.88.28 2.84.38.95.09 1.91.18 2.88.28 7.7.84 15.74 1.08 23.94.74 8.2-.32 16.19-1.25 23.82-2.55 7.63-1.31 14.94-2.92 21.78-4.87 1.72-.44 3.39-1.01 5.05-1.5 1.66-.5 3.3-.99 4.89-1.56 1.59-.55 3.17-1.08 4.71-1.61 1.53-.58 3.03-1.15 4.51-1.71.74-.28 1.47-.56 2.2-.84.72-.3 1.43-.6 2.13-.89 1.41-.59 2.79-1.17 4.15-1.74 2.68-1.21 5.25-2.37 7.67-3.54 9.67-4.74 17.18-9.2 22.22-12.5.64-.4 1.24-.78 1.8-1.14.55-.37 1.07-.73 1.55-1.05.96-.65 1.77-1.2 2.43-1.65.65-.43 1.15-.77 1.5-1 .34-.26.53-.36.53-.36z" fill="#263238"/><path d="m345.7 352.44 20.1 51.4h13.74l2.99-4.47 3.52 4.47h4.86l1.81-81.45z" fill="#00c1af"/><path d="m219.45 359.68 16.99 44.16h15.62l3.19-5.12 3.08 5.12h3.88s1.7-49.82 0-51.24c-1.71-1.41-42.76 7.08-42.76 7.08z" fill="#00c1af"/><path d="m417.89 260.98c.01 0 .01.1-.01.29-.02.22-.04.51-.07.86-.07.79-.18 1.89-.31 3.3-.07.72-.15 1.51-.24 2.38-.11.87-.29 1.8-.45 2.81-.36 2.01-.65 4.33-1.3 6.82-.29 1.25-.6 2.57-.92 3.93-.33 1.37-.8 2.75-1.22 4.2-.8 2.92-1.98 5.94-3.15 9.13-2.56 6.31-5.84 13.05-9.99 19.73-4.23 6.63-8.89 12.51-13.47 17.54-2.37 2.44-4.58 4.81-6.87 6.79-1.13 1.01-2.17 2.03-3.26 2.92-1.09.88-2.14 1.72-3.15 2.53-1.97 1.66-3.93 2.93-5.59 4.12-.84.58-1.61 1.15-2.34 1.62-.75.45-1.43.87-2.05 1.24-1.21.72-2.16 1.3-2.84 1.7-.31.18-.55.32-.74.43-.17.09-.26.14-.26.13s.08-.07.24-.18c.19-.12.42-.28.72-.48.67-.43 1.6-1.03 2.78-1.79.61-.39 1.28-.81 2.02-1.28.72-.49 1.48-1.06 2.31-1.65 1.64-1.21 3.58-2.49 5.52-4.17.99-.81 2.03-1.66 3.12-2.55 1.08-.89 2.11-1.92 3.23-2.93 2.27-1.99 4.46-4.36 6.81-6.8 4.54-5.03 9.18-10.89 13.39-17.5 4.13-6.65 7.42-13.36 9.99-19.63 1.18-3.18 2.38-6.17 3.19-9.08.43-1.45.91-2.82 1.25-4.18.33-1.36.65-2.66.95-3.91.67-2.48.99-4.78 1.37-6.78.17-1 .37-1.93.49-2.8.1-.86.2-1.66.28-2.37.17-1.4.31-2.49.41-3.28.05-.35.09-.63.12-.85.01-.16.03-.26.04-.26z" fill="#fff"/><path d="m396.15 217.62c-4.56-11.3-14.51-21.97-26.03-26.64-9.36-3.8-19.77 2.9-20.3 12.99 0 .07-.01.14-.01.22-.36 7.24 2.49 14.27 5.97 20.63s7.66 12.37 10.37 19.1c4.46 11.07 4.61 23.82.4 34.99-2.68 7.12-7.13 14.7-3.1 21.8 2.64 4.66 7.95 6.95 13.28 6.46 10.21-.93 15.51-10.15 20.35-18.52 3.89-6.74 7.1-17.22 7.28-25.13.39-16.37-2.08-30.72-8.21-45.9z" fill="#fff" opacity=".2"/><path d="m357.91 188.47c.26 0 .51.03.77.04.02-.01.03-.01.05-.02z" fill="#fff" opacity=".2"/><path d="m241.38 249.56c-.37.1-.96-1.39-1.95-3.55-.52-1.06-1.17-2.26-2.16-3.27-.99-1.02-2.32-1.81-3.76-1.84-1.46-.03-2.93.63-3.99 1.52-1.07.88-1.82 2.03-2.35 3.04-1.05 2.06-1.45 3.59-1.84 3.53-.31-.04-.6-1.65.13-4.22.39-1.27 1.09-2.79 2.45-4.13 1.33-1.3 3.31-2.39 5.67-2.35 1.17.04 2.3.38 3.21.92.93.53 1.67 1.21 2.27 1.93 1.2 1.44 1.77 3 2.11 4.25.61 2.54.53 4.09.21 4.17z" fill="#263238"/><path d="m165.43 243.46c0 3.97-3.22 7.19-7.19 7.19s-7.19-3.22-7.19-7.19 3.22-7.19 7.19-7.19 7.19 3.22 7.19 7.19z" fill="#263238"/><path d="m393.79 183.32c-.01.01-.18-.18-.5-.54-.34-.41-.79-.94-1.34-1.61-.57-.71-1.28-1.57-2.14-2.54-.85-.97-1.79-2.11-2.91-3.29-1.1-1.2-2.3-2.51-3.65-3.87-1.32-1.39-2.81-2.79-4.35-4.28-3.15-2.93-6.72-6.03-10.64-9.07-3.94-3.02-7.84-5.69-11.47-7.99-1.84-1.12-3.57-2.2-5.24-3.13-1.65-.97-3.23-1.8-4.67-2.55-1.43-.78-2.76-1.4-3.92-1.98-1.15-.58-2.16-1.05-2.99-1.42-.79-.37-1.42-.66-1.9-.89-.43-.21-.66-.33-.65-.34.01-.02.24.07.69.25.49.2 1.14.47 1.94.8.84.35 1.87.79 3.04 1.35 1.17.55 2.52 1.15 3.96 1.91 1.46.74 3.04 1.55 4.71 2.5 1.69.91 3.44 1.98 5.29 3.09 3.66 2.29 7.59 4.95 11.54 7.99 3.93 3.05 7.51 6.18 10.65 9.14 1.54 1.51 3.03 2.92 4.33 4.33 1.34 1.37 2.53 2.7 3.62 3.92 1.1 1.2 2.02 2.36 2.86 3.35s1.52 1.87 2.07 2.6c.53.69.95 1.25 1.27 1.67.28.38.42.59.4.6z" fill="#fff"/><path d="m318.19 151.01c-.01.02-.27-.06-.78-.23-.55-.19-1.28-.44-2.2-.76-.95-.34-2.11-.75-3.49-1.15-1.37-.41-2.91-.94-4.66-1.37-.87-.23-1.78-.47-2.73-.72s-1.96-.44-2.99-.68c-2.06-.49-4.29-.85-6.63-1.27-4.7-.72-9.91-1.28-15.4-1.46-5.49-.14-10.72.12-15.46.57-2.36.28-4.61.51-6.7.89-1.04.18-2.06.31-3.02.5-.96.2-1.89.38-2.77.56-1.77.33-3.34.76-4.73 1.1-1.39.32-2.58.66-3.55.95-.93.26-1.68.47-2.23.63-.51.14-.79.2-.79.19-.01-.02.26-.11.76-.29.55-.18 1.29-.42 2.21-.72.96-.32 2.14-.69 3.53-1.03 1.39-.36 2.96-.82 4.73-1.17.88-.19 1.81-.39 2.77-.6.96-.2 1.98-.35 3.03-.53 2.09-.4 4.35-.64 6.72-.94 4.75-.48 10.01-.75 15.53-.61 5.51.18 10.74.75 15.46 1.5 2.35.43 4.59.81 6.65 1.32 1.03.25 2.04.45 2.99.71s1.86.52 2.73.76c1.75.45 3.29 1.01 4.65 1.44 1.37.43 2.53.86 3.46 1.24.9.35 1.62.64 2.16.85.5.19.76.3.75.32z" fill="#fff"/><path d="m357.9 362.95c1.91.83 3.31 2.59 4.01 4.55s.77 4.09.53 6.16c-.45 4-2.72 8.03-5.17 11.23-3.37-2.94-4.14-8.06-4.37-10.69-.35-4.15 1.51-11.86 5-11.25" fill="#455a64"/><path d="m361.19 391.48c-.54-2.26.4-4.74 2.14-6.28 1.73-1.55 4.16-2.2 6.47-2.02 1.07.08 2.23.39 2.84 1.28.57.82.51 1.97.04 2.86s-1.27 1.55-2.12 2.09c-2.91 1.83-6.07 3.06-9.37 2.07" fill="#455a64"/><path d="m356.88 403.74c-.02 0 .03-.3.12-.82.11-.58.24-1.32.41-2.22.37-1.85.85-4.51 2.29-7.09 1.42-2.57 3.41-4.47 5.09-5.41.83-.48 1.56-.77 2.07-.92.25-.09.46-.12.6-.15s.21-.04.21-.03c.02.07-1.17.28-2.78 1.28-1.62.97-3.54 2.84-4.94 5.37-1.41 2.53-1.92 5.15-2.34 6.99-.2.93-.37 1.68-.5 2.2s-.22.8-.23.8z" fill="#263238"/><path d="m357 368.95c.01 0 .02.12.04.36.02.27.04.61.06 1.03.05.89.1 2.19.15 3.79.1 3.2.18 7.63.16 12.52s-.14 9.32-.27 12.52c-.07 1.6-.13 2.9-.18 3.79-.03.42-.05.76-.07 1.03-.02.24-.03.36-.04.36s-.01-.12-.01-.36c0-.27.01-.61.02-1.03.02-.93.05-2.22.09-3.79.08-3.2.17-7.63.19-12.51.02-4.89-.03-9.31-.08-12.51-.02-1.57-.04-2.86-.06-3.79 0-.42 0-.77-.01-1.03 0-.25 0-.37.01-.38z" fill="#263238"/><path d="m355.37 393.92c-.77-4.84-4.03-9.21-8.44-11.32-1.12-.54-2.59-.89-3.52-.05s-.72 2.34-.27 3.51c1.89 4.84 6.95 8.26 12.14 8.2" fill="#455a64"/><path d="m347.47 386.38c.01-.02.26.09.71.31.23.11.5.24.81.43.3.19.67.37 1.03.64.37.26.78.54 1.18.88.42.33.83.72 1.25 1.14.83.85 1.66 1.87 2.38 3.05.7 1.19 1.21 2.4 1.57 3.54.16.57.31 1.12.4 1.64.11.52.16 1.01.2 1.46.06.45.04.86.06 1.21.02.36-.01.66-.03.91-.04.5-.07.78-.09.77-.07 0 .05-1.11-.15-2.88-.06-.44-.11-.92-.23-1.43-.09-.51-.25-1.05-.41-1.61-.36-1.11-.87-2.31-1.56-3.47-.7-1.16-1.51-2.17-2.32-3.02-.41-.42-.81-.81-1.21-1.14-.39-.35-.78-.63-1.14-.9-1.46-1.01-2.48-1.47-2.45-1.53z" fill="#263238"/><path d="m33.68 364.53c2.05.34 3.84 1.71 5 3.44s1.74 3.79 2.01 5.85c.53 3.99-.7 8.45-2.29 12.14-3.98-2.03-5.97-6.82-6.83-9.31-1.37-3.94-1.43-11.88 2.11-12.12" fill="#455a64"/><path d="m43.78 391.41c-1.07-2.06-.76-4.69.55-6.61s3.5-3.14 5.79-3.53c1.06-.18 2.26-.16 3.07.55.76.66.97 1.79.74 2.77-.24.98-.86 1.82-1.55 2.54-2.39 2.47-5.16 4.44-8.6 4.28" fill="#455a64"/><path d="m42.57 404.34c-.02 0-.05-.29-.08-.82-.04-.59-.09-1.34-.14-2.25-.09-1.89-.27-4.58.5-7.43.76-2.84 2.23-5.16 3.63-6.48.69-.67 1.33-1.12 1.79-1.39.23-.14.42-.23.54-.29.13-.06.2-.09.2-.08.04.06-1.06.55-2.39 1.91-1.34 1.33-2.75 3.62-3.49 6.41-.76 2.79-.62 5.46-.58 7.35.03.95.05 1.72.05 2.26 0 .52-.01.81-.03.81z" fill="#263238"/><path d="m34.26 370.57c.01 0 .05.11.13.34.08.25.18.58.31.98.26.86.63 2.1 1.07 3.64.88 3.08 2.03 7.36 3.19 12.11s2.12 9.07 2.77 12.21c.32 1.57.58 2.84.74 3.72.07.42.13.75.18 1.02.04.23.05.36.04.36s-.04-.12-.1-.35c-.06-.26-.14-.59-.24-1-.2-.91-.49-2.17-.83-3.7-.7-3.13-1.69-7.44-2.85-12.19s-2.28-9.03-3.11-12.12c-.41-1.52-.74-2.76-.98-3.67-.11-.41-.19-.74-.26-1-.04-.23-.07-.35-.06-.35z" fill="#263238"/><path d="m38.72 395.18c-1.92-4.51-6.14-7.96-10.93-8.94-1.22-.25-2.73-.24-3.43.8s-.13 2.45.59 3.47c3 4.24 8.74 6.33 13.77 5.01" fill="#455a64"/><path d="m29.24 389.79c0-.02.28.03.77.13.25.05.55.11.89.22s.74.2 1.15.38c.42.16.88.33 1.35.57.49.21.97.5 1.49.8 1.01.63 2.07 1.42 3.05 2.39.97.98 1.76 2.04 2.38 3.06.29.52.58 1.01.78 1.5.24.48.4.94.55 1.37.17.42.25.82.35 1.16s.15.65.2.89c.09.49.12.77.1.77-.06.01-.22-1.09-.84-2.76-.16-.41-.33-.87-.57-1.33-.21-.48-.5-.96-.79-1.46-.62-.99-1.4-2.03-2.35-2.99-.96-.95-1.99-1.73-2.98-2.36-.5-.3-.98-.59-1.45-.81-.46-.25-.91-.43-1.32-.6-1.68-.67-2.78-.87-2.76-.93z" fill="#263238"/></svg>