<svg enable-background="new 0 0 416 416" viewBox="0 0 416 416" xmlns="http://www.w3.org/2000/svg"><path d="m208 0c-114.7 0-208 93.3-208 208s93.3 208 208 208 208-93.3 208-208-93.3-208-208-208zm-50.2 116.8c12.6-13.4 30.5-20.8 50.2-20.8s37.4 7.4 50.1 20.9c12.9 13.7 19.2 32.1 17.7 51.8-3 39.2-33.4 71.2-67.8 71.2s-64.9-32-67.8-71.2c-1.5-19.9 4.8-38.3 17.6-51.9zm50.2 267.2c-47.5 0-92.9-19.2-126-53.2 9.4-13.4 21.3-24.7 35.1-33.4 25.5-16.4 57.8-25.4 90.9-25.4s65.4 9 90.8 25.3c13.8 8.7 25.8 20.1 35.2 33.4-33.1 34.1-78.5 53.3-126 53.3z" fill="#c6c6c6"/></svg>